<svg xmlns="http://www.w3.org/2000/svg" width="24" height="24" viewBox="0 0 24 24">
    <path fill="#424242" fill-rule="evenodd" d="M13.3 13v-2h-2.6v2h2.6zm1 0H17v-2h-2.7v2zm0-3H17V5.5a.5.5 0 0 0-.5-.5h-9a.5.5 0 0 0-.5.5V10H14.3zm-1 6v-2h-2.6v2h2.6zm1 0H17v-2h-2.7v2zm-1 3v-2h-2.6v2h2.6zm1 0h2.2a.5.5 0 0 0 .5-.5V17h-2.7v2zm-4.6-6v-2H7v2h2.7zm0 3v-2H7v2h2.7zm0 3v-2H7v1.5a.5.5 0 0 0 .5.5h2.2zM7.5 4h9A1.5 1.5 0 0 1 18 5.5v13a1.5 1.5 0 0 1-1.5 1.5h-9A1.5 1.5 0 0 1 6 18.5v-13A1.5 1.5 0 0 1 7.5 4z"/>
</svg>
