<svg width="24" height="24" viewBox="0 0 24 24" xmlns="http://www.w3.org/2000/svg">
  <path d="M2.5 4.5a.5.5 0 0 1 0-1H3.97a2.5 2.5 0 0 1 2.412 1.842l2.195 8.053a1.5 1.5 0 0 0 1.448 1.105h7.027a1.5 1.5 0 0 0 1.424-1.026l2.543-7.632a.5.5 0 1 1 .948.316l-2.543 7.633a2.5 2.5 0 0 1-2.372 1.709h-7.027a2.5 2.5 0 0 1-2.412-1.842L5.42 5.605A1.5 1.5 0 0 0 3.971 4.5H2.5zm7.997 16a1.5 1.5 0 1 1 0-3 1.5 1.5 0 0 1 0 3zm5.999 0a1.5 1.5 0 1 1 0-3 1.5 1.5 0 0 1 0 3z" fill="#424242" fill-rule="evenodd"/>
</svg>
