<svg xmlns="http://www.w3.org/2000/svg" width="24" height="24" viewBox="0 0 24 24">
    <path fill="#424242" fill-rule="evenodd" d="M6.708 18A7.97 7.97 0 0 0 12 20a7.97 7.97 0 0 0 5.292-2l-2.84-2.84A3.983 3.983 0 0 1 12 16a3.983 3.983 0 0 1-2.453-.84L6.707 18zM6 17.291l2.84-2.84A3.983 3.983 0 0 1 8 12c0-.924.314-1.775.84-2.453L6 6.707A7.97 7.97 0 0 0 4 12a7.97 7.97 0 0 0 2 5.292zm11.998 0A7.97 7.97 0 0 0 20 12a7.97 7.97 0 0 0-2-5.292l-2.84 2.84c.526.677.84 1.528.84 2.452 0 .924-.314 1.775-.84 2.453l2.84 2.84zm-.707-11.291A7.97 7.97 0 0 0 12 4a7.97 7.97 0 0 0-5.292 2l2.84 2.84A3.983 3.983 0 0 1 12 8c.924 0 1.775.314 2.453.84L17.293 6zM12 21a9 9 0 1 1 0-18 9 9 0 0 1 0 18zm0-6a3 3 0 1 0 0-6 3 3 0 0 0 0 6z"/>
</svg>
