<svg width="56" height="26" viewBox="0 0 56 26" role="img" xmlns="http://www.w3.org/2000/svg">
	<title>JUUL logo</title>
	<desc>JUUL logo</desc>
  <g fill="#424242">
    <path d="M51.5050676 18.2666172L51.5050676.0559407236 48.5778459.0559407236 48.5778459 18.2865741C48.5778459 22.537395 51.8940272 25.962 55.9660733 25.962L55.9660733 22.9205676C53.5039991 22.9205676 51.5060701 20.8450494 51.5060701 18.2666172M4.58932227 18.2666172C4.58932227 20.8250925 2.54327449 22.9205676 0 22.9205676L0 25.962C4.19234288 25.962 7.56867259 22.5174381 7.56867259 18.2875719L7.56867259.0569385689 4.59032474.0569385689 4.59032474 18.267615 4.58932227 18.2666172zM42.0838246.0569385689L42.0838246 18.2875719C42.0838246 20.8450494 39.9896581 22.9405245 37.3872377 22.9405245 34.8058692 22.9405245 32.6916532 20.8650063 32.6916532 18.2875719L32.6916532.0569385689 29.6220803.0569385689 29.6220803 18.2875719C29.6220803 22.5383928 33.0976549 25.962 37.3671882 25.962 41.656771 25.962 45.1122961 22.5174381 45.1122961 18.2875719L45.1122961.0569385689 42.0838246.0569385689zM23.1922173.0569385689L23.1922173 18.2875719C23.1922173 20.8450494 21.147172 22.9405245 18.602895 22.9405245 16.07967 22.9405245 14.0135727 20.8650063 14.0135727 18.2875719L14.0135727.0569385689 11.0141729.0569385689 11.0141729 18.2875719C11.0141729 22.5383928 14.4115546 25.962 18.5828455 25.962 22.7751884 25.962 26.1525206 22.5174381 26.1525206 18.2875719L26.1525206.0569385689 23.1922173.0569385689z"/>
  </g>
</svg>
