<?xml version="1.0" encoding="utf-8"?>
<!-- Generator: Adobe Illustrator 23.0.1, SVG Export Plug-In . SVG Version: 6.00 Build 0)  -->
<svg version="1.1" id="Layer_1" xmlns="http://www.w3.org/2000/svg" xmlns:xlink="http://www.w3.org/1999/xlink" x="0px" y="0px"
	 viewBox="0 0 40 40" style="enable-background:new 0 0 40 40;" xml:space="preserve">
<style type="text/css">
	.st0{fill:#FFFFFF;}
</style>
<g>
	<path class="st0" d="M28,26.8c0-1.6,0-3.1,0-4.7c0-0.5,0-0.9,0-1.4c0-0.3,0-0.5,0-0.8c0-0.1,0-0.2,0-0.3c0-0.2-0.1-0.5-0.1-0.7
		c-0.1-0.4-0.2-0.8-0.4-1.2c-0.4-0.7-0.9-1.2-1.6-1.4c-0.5-0.2-1-0.3-1.5-0.3c-0.4,0-0.8,0-1.2,0.1c-0.8,0.2-1.4,0.5-1.9,1.1
		c-0.1,0.1-0.2,0.3-0.3,0.4c0,0,0,0-0.1,0c0,0,0,0,0,0v-1.3c0-0.1,0-0.1-0.1-0.1h-3c0,0-0.1,0-0.1,0c0,0,0,0,0,0c0,0,0,0,0,0.1
		c0,1.1,0,2.2,0,3.4c0,1.1,0,2.3,0,3.4c0,0.2,0,0.5,0,0.7v2.9c0,0.1,0,0.1,0.1,0.1h3.1c0,0,0.1,0,0.1-0.1c0,0,0,0,0,0
		c0,0,0-0.1,0-0.1c0-1.6,0-3.3,0-4.9c0-0.2,0-0.3,0-0.5c0-0.4,0-0.7,0.1-1.1c0.1-0.3,0.2-0.5,0.3-0.7c0.2-0.3,0.5-0.5,0.9-0.6
		c0.3-0.1,0.5-0.1,0.8-0.1c0.2,0,0.3,0,0.5,0.1c0.4,0.1,0.7,0.4,0.8,0.7c0.1,0.3,0.2,0.5,0.2,0.8c0,0.1,0,0.1,0,0.2v6.1
		c0,0.1,0,0.1,0.1,0.1h3.2c0,0,0.1,0,0.1-0.1C28,26.9,28,26.9,28,26.8C28,26.8,28,26.8,28,26.8z"/>
	<path class="st0" d="M15.5,16.3L15.5,16.3C15.5,16.3,15.5,16.3,15.5,16.3c-0.1,0-0.1,0-0.1,0c-1,0-2,0-3,0c0,0-0.1,0-0.1,0
		c0,0-0.1,0-0.1,0c0,0,0,0,0,0.1v10.5c0,0,0,0.1,0.1,0.1c0,0,0,0,0,0c0.1,0,0.1,0,0.2,0c0,0,0,0,0.1,0c0.7,0,1.4,0,2.1,0
		c0.2,0,0.3,0,0.5,0c0,0,0.1,0,0.1,0c0.1,0,0.1,0,0.2,0c0,0,0,0,0,0c0,0,0,0,0,0h0c0,0,0.1,0,0.1-0.1L15.5,16.3
		C15.6,16.3,15.6,16.3,15.5,16.3z"/>
	<ellipse class="st0" cx="13.9" cy="12.9" rx="1.9" ry="1.9"/>
</g>
<g>
	<path class="st0" d="M20,36.5c-9.1,0-16.5-7.4-16.5-16.5c0-9.1,7.4-16.5,16.5-16.5c9.1,0,16.5,7.4,16.5,16.5
		C36.5,29.1,29.1,36.5,20,36.5z M20,4.5c-8.5,0-15.5,7-15.5,15.5s7,15.5,15.5,15.5s15.5-7,15.5-15.5S28.5,4.5,20,4.5z"/>
</g>
</svg>
