<svg xmlns="http://www.w3.org/2000/svg" width="24" height="24" viewBox="0 0 24 24">
    <path fill="#424242" fill-rule="evenodd" d="M9 17a2 2 0 1 0 0-4 2 2 0 0 0 0 4zm0 1a3 3 0 1 1 0-6 3 3 0 0 1 0 6zm-9-6.5A1.5 1.5 0 0 1 1.5 10h15a1.5 1.5 0 0 1 1.5 1.5v7a1.5 1.5 0 0 1-1.5 1.5h-15A1.5 1.5 0 0 1 0 18.5v-7zm1 0v7a.5.5 0 0 0 .5.5h15a.5.5 0 0 0 .5-.5v-7a.5.5 0 0 0-.5-.5h-15a.5.5 0 0 0-.5.5zM19 14v-1h3.5a.5.5 0 0 0 .5-.5v-7a.5.5 0 0 0-.5-.5h-15a.5.5 0 0 0-.5.5V9H6V5.5A1.5 1.5 0 0 1 7.5 4h15A1.5 1.5 0 0 1 24 5.5v7a1.5 1.5 0 0 1-1.5 1.5H19zm-6-5h-1a3 3 0 0 1 6 0h-1a2 2 0 1 0-4 0z"/>
</svg>
