<svg xmlns="http://www.w3.org/2000/svg" width="24" height="24" viewBox="0 0 24 24">
    <path fill="#424242" fill-rule="evenodd" d="M10 6.766v12.85l3.826-2.295a1.31 1.31 0 0 1 .174-.087V4.384l-3.826 2.295a1.31 1.31 0 0 1-.174.087zm-1 0a1.31 1.31 0 0 1-.174-.087L5.47 4.664A.31.31 0 0 0 5 4.93v12.112c0 .108.057.21.15.265L9 19.617V6.767zm6-2.383v12.85c.06.025.118.054.174.088l3.357 2.015A.31.31 0 0 0 19 19.07V6.958a.31.31 0 0 0-.15-.265L15 4.383zM4.636 18.165A1.31 1.31 0 0 1 4 17.042V4.93a1.31 1.31 0 0 1 1.983-1.123L9.341 5.82a.31.31 0 0 0 .318 0l4.167-2.5a1.31 1.31 0 0 1 1.348 0l4.19 2.514c.395.237.636.663.636 1.123V19.07a1.31 1.31 0 0 1-1.983 1.123l-3.358-2.014a.31.31 0 0 0-.318 0l-4.167 2.5a1.31 1.31 0 0 1-1.348 0l-4.19-2.514z"/>
</svg>
