<?xml version="1.0" encoding="utf-8"?>
<!-- Generator: Adobe Illustrator 23.0.1, SVG Export Plug-In . SVG Version: 6.00 Build 0)  -->
<svg version="1.1" id="Layer_1" xmlns="http://www.w3.org/2000/svg" xmlns:xlink="http://www.w3.org/1999/xlink" x="0px" y="0px"
	 viewBox="0 0 40 40" style="enable-background:new 0 0 40 40;" xml:space="preserve">
<style type="text/css">
	.st0{fill:#FFFFFF;}
</style>
<g>
	<path class="st0" d="M20,36.5c-9.1,0-16.5-7.4-16.5-16.5c0-9.1,7.4-16.5,16.5-16.5c9.1,0,16.5,7.4,16.5,16.5
		C36.5,29.1,29.1,36.5,20,36.5z M20,4.5c-8.5,0-15.5,7-15.5,15.5s7,15.5,15.5,15.5s15.5-7,15.5-15.5S28.5,4.5,20,4.5z"/>
</g>
<path class="st0" d="M16.8,23.7c-1.5-0.1-2.5-0.9-3.1-2.3c0.3,0,0.5,0,0.7,0c0.2,0,0.5,0,0.7-0.1c-1.6-0.5-2.5-1.6-2.6-3.3
	c0.3,0.1,0.5,0.2,0.7,0.3c0.2,0.1,0.5,0.1,0.7,0.1c-0.8-0.6-1.3-1.4-1.4-2.3c-0.1-0.7,0-1.4,0.4-2c1.8,2.1,4,3.2,6.8,3.4
	c0-0.2,0-0.4-0.1-0.6c0-1.1,0.4-2,1.2-2.7c1.1-0.9,2.7-1,3.9-0.2c0.2,0.1,0.3,0.3,0.5,0.4c0.1,0.1,0.1,0.1,0.2,0.1
	c0.6-0.1,1.2-0.4,1.8-0.7c0.1,0,0.1-0.1,0.2-0.1c-0.1,0.5-0.5,1.1-1.3,1.8c0.2,0,0.4-0.1,0.6-0.1c0.2,0,0.4-0.1,0.6-0.2
	c0.2-0.1,0.4-0.1,0.6-0.2c-0.1,0.2-0.3,0.4-0.4,0.6c-0.3,0.4-0.7,0.7-1.1,1c0,0-0.1,0.1-0.1,0.2c0,1-0.1,1.9-0.3,2.8
	c-0.2,0.8-0.5,1.5-0.9,2.2c-0.3,0.6-0.7,1.1-1.1,1.6c-0.9,1.1-2.1,1.9-3.4,2.4c-1,0.4-2.1,0.6-3.2,0.7c-0.8,0-1.6,0-2.3-0.2
	c-0.8-0.2-1.5-0.4-2.2-0.8c-0.3-0.1-0.5-0.3-0.8-0.4c0,0,0,0-0.1-0.1C13.8,25.2,15.4,24.8,16.8,23.7z"/>
</svg>
