<svg xmlns="http://www.w3.org/2000/svg" width="35" height="24" viewBox="0 0 35 24">
    <g fill="none" fill-rule="evenodd">
        <rect width="35" height="24" fill="#F5F5F5" rx="2"/>
        <path fill="#F00" d="M2.017 0H33a2 2 0 0 1 2 2v1.469H.017V2a2 2 0 0 1 2-2zM.017 6.76H35v3.548H.017zM.017 13.6H35v3.548H.017zM.017 20.434H35v1.548a2 2 0 0 1-2 2H2.017a2 2 0 0 1-2-2v-1.548z"/>
        <path fill="#0F316B" d="M2 0h15v13.6H0V2a2 2 0 0 1 2-2z"/>
        <path fill="#F5F5F5" d="M2.07.947l.383.83.864.134-.623.648.148.91-.772-.428-.766.428.149-.91-.624-.648.858-.134zM5.136.947l.383.83.858.134-.624.648.149.91-.766-.428-.772.428.148-.91-.623-.648.863-.134zM8.195.947l.383.83.858.134-.617.648.143.91-.767-.428-.766.428.143-.91-.618-.648.858-.134zM11.255.947l.389.83.858.134-.624.648.149.91-.772-.428-.766.428.148-.91-.623-.648.858-.134zM14.32.947l.383.83.858.134-.617.648.143.91-.767-.428-.766.428.143-.91-.618-.648.858-.134zM2.07 3.853l.383.831.864.134-.623.648.148.91-.772-.428-.766.428.149-.91-.624-.648.858-.134zM5.136 3.853l.383.831.858.134-.624.648.149.91-.766-.428-.772.428.148-.91-.623-.648.863-.134zM8.195 3.853l.383.831.858.134-.617.648.143.91-.767-.428-.766.428.143-.91-.618-.648.858-.134zM11.255 3.853l.389.831.858.134-.624.648.149.91-.772-.428-.766.428.148-.91-.623-.648.858-.134zM14.32 3.853l.383.831.858.134-.617.648.143.91-.767-.428-.766.428.143-.91-.618-.648.858-.134zM2.07 6.76l.383.83.864.135-.623.648.148.91-.772-.428-.766.427.149-.91-.624-.647.858-.134zM5.136 6.76l.383.83.858.135-.624.648.149.91-.766-.428-.772.427.148-.91-.623-.647.863-.134zM8.195 6.76l.383.83.858.135-.617.648.143.91-.767-.428-.766.427.143-.91-.618-.647.858-.134zM11.255 6.76l.389.83.858.135-.624.648.149.91-.772-.428-.766.427.148-.91-.623-.647.858-.134zM14.32 6.76l.383.83.858.135-.617.648.143.91-.767-.428-.766.427.143-.91-.618-.647.858-.134zM2.07 9.667l.383.83.864.135-.623.647.148.91-.772-.427-.766.427.149-.91-.624-.647.858-.134zM5.136 9.667l.383.83.858.135-.624.647.149.91-.766-.427-.772.427.148-.91-.623-.647.863-.134zM8.195 9.667l.383.83.858.135-.617.647.143.91-.767-.427-.766.427.143-.91-.618-.647.858-.134zM11.255 9.667l.389.83.858.135-.624.647.149.91-.772-.427-.766.427.148-.91-.623-.647.858-.134zM14.32 9.667l.383.83.858.135-.617.647.143.91-.767-.427-.766.427.143-.91-.618-.647.858-.134z"/>
    </g>
</svg>
